<svg width="256" height="256" viewBox="0 0 256 256" xmlns="http://www.w3.org/2000/svg">
  <!-- Весь календарь -->
  <rect x="16" y="32" width="224" height="208" rx="32" ry="32" fill="#00c5d4"/>
  
  <!-- Внутренняя "страница" -->
  <rect x="32" y="80" width="192" height="144" rx="8" ry="8" fill="#0a0e1a" opacity="0.9"/>
  
  <!-- Петли сверху -->
  <rect x="64" y="16" width="24" height="48" rx="12" ry="12" fill="#00c5d4"/>
  <rect x="116" y="16" width="24" height="48" rx="12" ry="12" fill="#00c5d4"/>
  <rect x="168" y="16" width="24" height="48" rx="12" ry="12" fill="#00c5d4"/>
  
  <!-- Клетки дней (3 ряда по 4) -->
  <g fill="#00c5d4">
    <!-- ряд 1 -->
    <rect x="56"  y="96" width="32" height="24" rx="6" ry="6"/>
    <rect x="96"  y="96" width="32" height="24" rx="6" ry="6"/>
    <rect x="136" y="96" width="32" height="24" rx="6" ry="6"/>
    <rect x="176" y="96" width="32" height="24" rx="6" ry="6"/>

    <!-- ряд 2 -->
    <rect x="56"  y="132" width="32" height="24" rx="6" ry="6"/>
    <rect x="96"  y="132" width="32" height="24" rx="6" ry="6"/>
    <rect x="136" y="132" width="32" height="24" rx="6" ry="6"/>
    <rect x="176" y="132" width="32" height="24" rx="6" ry="6"/>

    <!-- ряд 3 -->
    <rect x="56"  y="168" width="32" height="24" rx="6" ry="6"/>
    <rect x="96"  y="168" width="32" height="24" rx="6" ry="6"/>
    <rect x="136" y="168" width="32" height="24" rx="6" ry="6"/>
    <rect x="176" y="168" width="32" height="24" rx="6" ry="6"/>
  </g>
</svg>
